<svg width="116" height="116" viewBox="0 0 116 116" fill="none" xmlns="http://www.w3.org/2000/svg">
<path d="M54.375 87C54.375 89.002 55.9979 90.625 58 90.625C60.002 90.625 61.625 89.002 61.625 87V72.5C61.625 70.4979 60.002 68.875 58 68.875C55.9979 68.875 54.375 70.4979 54.375 72.5V87Z" fill="#003399"/>
<path fill-rule="evenodd" clip-rule="evenodd" d="M58 6.04163C54.5774 6.04163 51.4678 7.02192 48.0943 8.66245C44.8332 10.2483 41.066 12.5864 36.3604 15.5069L26.372 21.706C21.9195 24.4692 18.3543 26.6819 15.6063 28.7864C12.7607 30.9656 10.575 33.1851 8.99629 36.0693C7.42084 38.9476 6.71137 42.01 6.37121 45.63C6.04156 49.1382 6.04159 53.4282 6.04163 58.8082V66.6026C6.04156 75.8047 6.04151 83.0684 6.77969 88.7477C7.53693 94.5736 9.12801 99.277 12.723 102.996C16.3346 106.731 20.9305 108.4 26.6201 109.192C32.1343 109.958 39.1768 109.958 48.0522 109.958H67.9474C76.8228 109.958 83.8656 109.958 89.3799 109.192C95.0694 108.4 99.6653 106.731 103.277 102.996C106.872 99.277 108.463 94.5736 109.22 88.7477C109.958 83.0684 109.958 75.8048 109.958 66.6026V58.8082C109.958 53.4283 109.958 49.1381 109.629 45.63C109.289 42.01 108.579 38.9476 107.004 36.0693C105.425 33.1851 103.239 30.9656 100.394 28.7864C97.6457 26.6819 94.0805 24.4693 89.628 21.706L79.6394 15.5068C74.9339 12.5864 71.1667 10.2483 67.9056 8.66245C64.5321 7.02192 61.4225 6.04163 58 6.04163ZM40.0177 21.7699C44.9272 18.7229 48.3792 16.5857 51.2649 15.1824C54.0764 13.8152 56.0675 13.2916 58 13.2916C59.9324 13.2916 61.9235 13.8152 64.735 15.1824C67.6207 16.5857 71.0727 18.7229 75.9822 21.7699L85.6489 27.7693C90.2929 30.6515 93.5535 32.6798 95.9855 34.5423C98.3519 36.3546 99.7133 37.8501 100.644 39.5504C101.578 41.2568 102.123 43.2518 102.41 46.3083C102.705 49.4381 102.708 53.3881 102.708 58.9856V66.3372C102.708 75.8635 102.701 82.6556 102.031 87.8133C101.372 92.8789 100.132 95.8177 98.0645 97.9564C96.0135 100.078 93.2211 101.338 88.3812 102.011C83.4241 102.7 76.8864 102.708 67.6666 102.708H48.3333C39.1136 102.708 32.5758 102.7 27.6187 102.011C22.7788 101.338 19.9865 100.078 17.9354 97.9564C15.8678 95.8177 14.6276 92.8789 13.9692 87.8133C13.2988 82.6556 13.2916 75.8635 13.2916 66.3372V58.9856C13.2916 53.3881 13.2953 49.4381 13.5894 46.3083C13.8766 43.2518 14.4219 41.2568 15.3559 39.5504C16.2866 37.8501 17.648 36.3546 20.0144 34.5423C22.4464 32.6798 25.707 30.6515 30.351 27.7693L40.0177 21.7699Z" fill="#003399"/>
</svg>
